<?xml version="1.0" standalone="no"?>
<!DOCTYPE svg PUBLIC "-//W3C//DTD SVG 20010904//EN"
 "http://www.w3.org/TR/2001/REC-SVG-20010904/DTD/svg10.dtd">
<svg version="1.0" xmlns="http://www.w3.org/2000/svg"
 width="290.000000pt" height="360.000000pt" viewBox="0 0 290.000000 360.000000"
 preserveAspectRatio="xMidYMid meet">
<metadata>
Created by potrace 1.14, written by Peter Selinger 2001-2017
</metadata>
<g transform="translate(0.000000,360.000000) scale(0.100000,-0.100000)"
fill="#000000" stroke="none">
<path d="M304 3432 c3 -9 10 -39 16 -67 21 -94 260 -1140 275 -1200 8 -33 35
-150 60 -260 75 -329 115 -505 135 -590 11 -44 37 -161 60 -260 22 -99 44
-188 48 -199 7 -16 47 17 268 219 142 131 287 265 322 298 l63 59 -34 57 c-73
121 -345 568 -370 609 -15 23 -25 42 -23 42 2 0 120 -147 262 -327 142 -181
296 -375 342 -433 46 -58 87 -113 89 -122 3 -10 9 -18 13 -18 6 0 88 -98 111
-133 7 -10 159 101 159 116 0 5 -45 66 -100 136 -55 69 -115 145 -133 169 -17
24 -37 48 -43 55 -6 7 -54 68 -108 137 -54 69 -105 134 -114 145 -9 11 -101
128 -205 260 -103 132 -192 241 -196 243 -5 2 -42 -22 -81 -52 l-72 -56 -68
112 c-38 62 -149 246 -248 408 -99 162 -178 297 -175 300 2 2 7 -1 11 -7 4 -6
70 -78 148 -159 77 -82 293 -311 479 -509 186 -198 377 -401 424 -450 47 -50
119 -126 159 -168 49 -53 77 -75 86 -70 10 6 339 306 610 556 22 21 60 54 84
74 24 20 39 40 35 44 -4 4 -186 89 -403 189 -217 100 -480 221 -585 270 -104
48 -386 178 -625 288 -239 110 -474 218 -521 241 -152 70 -161 73 -155 53z"/>
<path d="M1221 578 c-9 -24 -96 -245 -112 -285 -7 -20 -5 -23 16 -23 15 0 25
6 25 15 0 8 7 33 16 55 l17 41 69 -3 70 -3 20 -52 c14 -39 25 -53 39 -53 10 0
19 3 19 6 0 5 -21 56 -102 252 -22 54 -35 72 -49 72 -11 0 -23 -10 -28 -22z"/>
<path d="M1474 443 c-32 -86 -60 -160 -62 -165 -2 -4 5 -8 16 -8 14 0 25 14
39 53 l20 52 71 3 71 3 17 -56 c15 -46 22 -55 41 -55 l23 0 -19 48 c-107 268
-113 282 -136 282 -19 0 -29 -19 -81 -157z"/>
</g>
</svg>
